<svg width="111" height="111" viewBox="0 0 111 111" fill="none" xmlns="http://www.w3.org/2000/svg">
<g id="arrow_circle_right_FILL0_wght200_GRAD0_opsz48 2">
<path id="Vector" d="M55.5 41.0202L41.0202 55.5L55.5 69.9798L57.9548 67.525L47.7087 57.2789L71.1539 57.2789V53.7211L47.7087 53.7211L57.9548 43.475L55.5 41.0202ZM55.4845 13.875C61.2227 13.875 66.6106 14.9672 71.6482 17.1517C76.6858 19.3362 81.0981 22.3202 84.8851 26.1036C88.6719 29.887 91.6586 34.2951 93.8452 39.328C96.0317 44.3608 97.125 49.7463 97.125 55.4845C97.125 61.2406 96.0328 66.6522 93.8483 71.7194C91.6638 76.7866 88.6798 81.1945 84.8964 84.9429C81.113 88.6912 76.7049 91.6586 71.672 93.8452C66.6392 96.0317 61.2537 97.125 55.5155 97.125C49.7594 97.125 44.3478 96.0328 39.2806 93.8483C34.2134 91.6638 29.8055 88.6991 26.0571 84.9542C22.3088 81.2093 19.3414 76.8057 17.1548 71.7432C14.9683 66.6807 13.875 61.2715 13.875 55.5155C13.875 49.7773 14.9672 44.3894 17.1517 39.3518C19.3362 34.3142 22.3009 29.9019 26.0458 26.1149C29.7907 22.3281 34.1943 19.3414 39.2568 17.1548C44.3193 14.9683 49.7285 13.875 55.4845 13.875ZM55.5 17.4327C44.9099 17.4327 35.9178 21.1342 28.5238 28.5372C21.1297 35.9401 17.4327 44.9277 17.4327 55.5C17.4327 66.0901 21.1297 75.0822 28.5238 82.4762C35.9178 89.8703 44.9099 93.5673 55.5 93.5673C66.0723 93.5673 75.0599 89.8703 82.4628 82.4762C89.8658 75.0822 93.5673 66.0901 93.5673 55.5C93.5673 44.9277 89.8658 35.9401 82.4628 28.5372C75.0599 21.1342 66.0723 17.4327 55.5 17.4327Z" fill="white"/>
</g>
</svg>
