<svg width="111" height="111" viewBox="0 0 111 111" fill="none" xmlns="http://www.w3.org/2000/svg">
<g id="arrow_circle_right_FILL0_wght200_GRAD0_opsz48 1">
<path id="Vector" d="M55.5 69.9798L69.9798 55.5L55.5 41.0202L53.0452 43.475L63.2913 53.7211H39.8461V57.2789H63.2913L53.0452 67.525L55.5 69.9798ZM55.5155 97.125C49.7773 97.125 44.3894 96.0328 39.3518 93.8483C34.3142 91.6638 29.9019 88.6798 26.1149 84.8964C22.3281 81.113 19.3414 76.7049 17.1548 71.672C14.9683 66.6392 13.875 61.2537 13.875 55.5155C13.875 49.7594 14.9672 44.3478 17.1517 39.2806C19.3362 34.2134 22.3202 29.8055 26.1036 26.0571C29.887 22.3088 34.2951 19.3414 39.328 17.1548C44.3608 14.9683 49.7463 13.875 55.4845 13.875C61.2406 13.875 66.6522 14.9672 71.7194 17.1517C76.7866 19.3362 81.1945 22.3009 84.9429 26.0458C88.6912 29.7907 91.6586 34.1943 93.8452 39.2568C96.0317 44.3193 97.125 49.7285 97.125 55.4845C97.125 61.2227 96.0328 66.6106 93.8483 71.6482C91.6638 76.6858 88.6991 81.0981 84.9542 84.8851C81.2093 88.6719 76.8057 91.6586 71.7432 93.8452C66.6807 96.0317 61.2715 97.125 55.5155 97.125ZM55.5 93.5673C66.0901 93.5673 75.0822 89.8658 82.4762 82.4628C89.8703 75.0599 93.5673 66.0723 93.5673 55.5C93.5673 44.9099 89.8703 35.9178 82.4762 28.5238C75.0822 21.1297 66.0901 17.4327 55.5 17.4327C44.9277 17.4327 35.9401 21.1297 28.5372 28.5238C21.1342 35.9178 17.4327 44.9099 17.4327 55.5C17.4327 66.0723 21.1342 75.0599 28.5372 82.4628C35.9401 89.8658 44.9277 93.5673 55.5 93.5673Z" fill="white"/>
</g>
</svg>
